<svg width="418" height="67" viewBox="0 0 418 67" fill="none" xmlns="http://www.w3.org/2000/svg">
<path d="M24.4162 47.9791L21.4402 38.6671C20.4802 35.7871 20.0002 32.6191 20.0002 29.1631C20.0002 28.2031 20.4802 26.2831 21.4402 23.4031C22.4002 20.5231 22.9442 18.6031 23.0722 17.6431C23.0722 14.6351 22.6242 12.2351 21.7282 10.4431C20.5762 7.8831 18.8162 6.6031 16.4482 6.6031C16.1922 6.66711 15.9042 6.73111 15.5842 6.79511C15.2642 6.79511 14.8482 6.89111 14.3362 7.0831L11.6482 7.4671L9.63225 7.37111L7.52025 6.6031C7.52025 10.0591 6.88025 12.6511 5.60025 14.3791L3.10425 17.7391C2.65625 19.5311 2.43225 21.0671 2.43225 22.3471C2.43225 22.9231 2.46425 23.5951 2.52825 24.3631C2.59225 25.1311 2.72025 25.9951 2.91225 26.9551L3.39225 31.0831L3.10425 33.1951C2.40025 33.8991 1.69625 34.8911 0.992247 36.1711C0.480247 37.3231 0.224247 38.6671 0.224247 40.2031C0.224247 42.5071 1.18425 44.8111 3.10425 47.1151C5.34425 49.6751 6.97625 51.7551 8.00025 53.3551C9.08825 54.8911 9.63225 56.0431 9.63225 56.8111V59.2111C9.63225 59.7231 9.53625 60.1711 9.34425 60.5551L7.52025 62.7631C9.18425 62.9551 10.6242 63.4031 11.8402 64.1071L16.4482 66.4111C18.8162 63.2751 20.8322 59.2751 22.4962 54.4111L24.4162 47.9791ZM135.02 45.4831C135.02 43.8191 133.836 41.9311 131.468 39.8191C125.708 35.0191 122.252 29.3871 121.1 22.9231L121.004 21.1951L121.1 18.6031L121.196 16.1071L121.1 14.8591C120.716 12.9391 119.628 11.4031 117.836 10.2511C112.46 6.60311 108.876 3.4671 107.084 0.843103C107.084 5.06711 105.9 7.85111 103.532 9.1951C99.6282 11.3071 97.3882 12.7151 96.8122 13.4191C95.4042 15.1471 94.7002 17.6111 94.7002 20.8111C94.7002 24.0751 93.6762 26.7631 91.6282 28.8751C89.1962 31.5631 86.9242 36.0431 84.8122 42.3151L79.0522 61.3231L82.7962 62.8591L85.6762 62.6671C88.4922 62.6671 91.9802 60.3311 96.1402 55.6591C100.3 50.9871 104.652 48.6511 109.196 48.6511C110.412 48.6511 112.46 49.2591 115.34 50.4751C118.22 51.6271 119.66 52.7791 119.66 53.9311C119.66 54.6991 119.532 55.3711 119.276 55.9471C119.02 56.4591 118.828 57.1631 118.7 58.0591C118.7 58.8911 119.02 60.4591 119.66 62.7631C121.004 61.2271 122.796 60.2351 125.036 59.7871C126.188 59.5951 127.372 59.4351 128.588 59.3071C129.868 59.1791 131.308 59.1151 132.908 59.1151C132.908 55.9791 133.1 53.6431 133.484 52.1071L135.02 45.4831ZM114.476 38.4751L111.5 37.7071C110.22 37.7071 108.844 38.0271 107.372 38.6671L99.0202 42.1231C99.7882 36.7471 100.684 33.2591 101.708 31.6591C103.308 28.9711 104.108 26.8271 104.108 25.2271C106.412 26.1871 108.044 27.3711 109.004 28.7791C109.836 30.3791 110.636 31.8831 111.404 33.2911C112.236 34.6991 113.26 36.4271 114.476 38.4751ZM200.834 47.0191C200.834 45.2271 199.106 41.9311 195.649 37.1311C192.257 32.2671 190.561 29.0031 190.561 27.3391L190.465 26.2831C190.465 25.1951 190.849 22.8591 191.618 19.2751C192.001 17.5471 192.193 16.2031 192.193 15.2431C192.193 13.6431 191.873 12.2991 191.233 11.2111C190.657 10.0591 189.441 8.87511 187.586 7.65911C187.586 10.4751 186.722 13.0991 184.993 15.5311L177.217 24.6511C176.385 25.5471 174.849 28.7791 172.609 34.3471C170.881 38.6351 169.089 40.7791 167.233 40.7791C164.929 40.7791 163.457 39.2751 162.817 36.2671L160.993 26.3791C159.457 20.6191 156.513 15.1151 152.161 9.86711C150.945 11.8511 150.081 13.6431 149.569 15.2431C149.121 17.0351 148.897 18.4431 148.897 19.4671L149.185 22.5391L149.569 25.1311C149.569 25.9631 149.441 26.7311 149.185 27.4351C148.993 28.1391 148.161 29.2591 146.689 30.7951C145.217 32.2671 144.353 33.3551 144.097 34.0591L143.521 37.1311L143.329 40.6831L143.425 46.4431L143.617 50.0911C143.617 51.4991 143.617 52.8751 143.617 54.2191C143.425 55.2431 143.265 56.2351 143.137 57.1951C143.009 58.1551 142.561 59.5951 141.793 61.5151L144.289 62.9551L145.825 63.6271C147.873 63.6271 149.409 62.8911 150.433 61.4191C151.521 59.9471 152.065 57.6111 152.065 54.4111V52.9711C152.065 52.5231 152.001 51.9151 151.873 51.1471L151.489 48.1711C151.489 47.3391 151.521 46.7311 151.585 46.3471C151.649 45.9631 151.777 45.3551 151.969 44.5231H153.601C154.305 47.7871 156.289 49.8031 159.553 50.5711C165.953 52.0431 169.153 56.6511 169.153 64.3951C171.137 63.0511 172.673 61.5791 173.761 59.9791L177.217 54.1231L182.401 50.6671C183.873 49.5791 184.865 48.5231 185.377 47.4991L185.281 45.4831L185.377 43.6591C185.377 43.0191 185.601 42.0591 186.049 40.7791L189.217 43.1791C190.049 44.2031 190.465 45.7391 190.465 47.7871C190.465 50.3471 189.665 53.1311 188.066 56.1391L185.377 60.7471H189.025L195.17 58.7311C198.946 56.4271 200.834 52.5231 200.834 47.0191ZM302.054 43.8511L296.486 36.5551C292.966 31.9471 290.182 28.4911 288.134 26.1871C287.046 25.0351 285.99 24.1391 284.966 23.4991C284.134 23.1151 283.206 22.8591 282.182 22.7311C281.222 22.7311 279.974 23.0511 278.438 23.6911C276.902 24.2671 275.75 24.5551 274.982 24.5551C274.15 24.5551 273.318 24.3631 272.486 23.9791C271.654 23.5311 270.726 22.7951 269.702 21.7711V15.0511C273.414 15.0511 276.39 14.8271 278.63 14.3791L285.926 12.7471C287.91 12.7471 289.062 12.8751 289.382 13.1311L291.878 16.5871L298.502 9.96311V8.4271C296.902 7.4031 294.758 6.47511 292.07 5.6431C289.382 5.00311 285.734 4.68311 281.126 4.68311C276.582 4.68311 272.614 5.06711 269.222 5.83511C266.918 6.41111 264.614 7.27511 262.31 8.4271C260.838 9.1951 259.718 10.2191 258.95 11.4991C258.31 12.7791 257.99 14.0591 257.99 15.3391C257.99 15.8511 258.022 16.4271 258.086 17.0671C258.15 17.7071 258.278 18.3791 258.47 19.0831C259.238 22.4751 259.622 24.5231 259.622 25.2271L259.43 26.5711C259.43 26.9551 258.918 27.6271 257.894 28.5871C257.51 28.9711 257.254 29.3871 257.126 29.8351C257.126 33.2911 258.246 36.7151 260.486 40.1071C262.406 43.1151 263.974 44.6191 265.19 44.6191L272.678 42.1231C273.83 41.7391 274.886 41.4511 275.846 41.2591C276.806 41.0031 277.574 40.8431 278.15 40.7791C280.646 40.7791 282.694 41.2911 284.294 42.3151C285.894 43.3391 286.694 44.5871 286.694 46.0591C286.694 47.5951 282.214 48.9071 273.254 49.9951C264.358 51.0831 258.502 53.7071 255.686 57.8671L262.694 59.6911L268.262 60.1711L270.95 60.0751H273.446C273.958 60.2671 275.494 61.5151 278.054 63.8191C278.95 64.5871 279.846 65.0351 280.742 65.1631C281.958 65.1631 285.798 62.0911 292.262 55.9471C298.79 49.8031 302.054 45.7711 302.054 43.8511ZM364.614 45.4831C364.614 43.8191 363.43 41.9311 361.062 39.8191C355.302 35.0191 351.846 29.3871 350.694 22.9231L350.598 21.1951L350.694 18.6031L350.79 16.1071L350.694 14.8591C350.31 12.9391 349.222 11.4031 347.43 10.2511C342.054 6.60311 338.47 3.4671 336.678 0.843103C336.678 5.06711 335.494 7.85111 333.126 9.1951C329.222 11.3071 326.982 12.7151 326.406 13.4191C324.998 15.1471 324.294 17.6111 324.294 20.8111C324.294 24.0751 323.27 26.7631 321.222 28.8751C318.79 31.5631 316.518 36.0431 314.406 42.3151L308.646 61.3231L312.39 62.8591L315.27 62.6671C318.086 62.6671 321.574 60.3311 325.734 55.6591C329.894 50.9871 334.246 48.6511 338.79 48.6511C340.006 48.6511 342.054 49.2591 344.934 50.4751C347.814 51.6271 349.254 52.7791 349.254 53.9311C349.254 54.6991 349.126 55.3711 348.87 55.9471C348.614 56.4591 348.422 57.1631 348.294 58.0591C348.294 58.8911 348.614 60.4591 349.254 62.7631C350.598 61.2271 352.39 60.2351 354.63 59.7871C355.782 59.5951 356.966 59.4351 358.182 59.3071C359.462 59.1791 360.902 59.1151 362.502 59.1151C362.502 55.9791 362.694 53.6431 363.078 52.1071L364.614 45.4831ZM344.07 38.4751L341.094 37.7071C339.814 37.7071 338.438 38.0271 336.966 38.6671L328.614 42.1231C329.382 36.7471 330.278 33.2591 331.302 31.6591C332.902 28.9711 333.702 26.8271 333.702 25.2271C336.006 26.1871 337.638 27.3711 338.598 28.7791C339.43 30.3791 340.23 31.8831 340.998 33.2911C341.83 34.6991 342.854 36.4271 344.07 38.4751ZM425.627 44.8111C425.627 43.2111 424.443 40.1391 422.075 35.5951L418.235 28.5871V27.1471L418.331 24.3631V23.3071C418.331 22.1551 418.299 21.0671 418.235 20.0431C418.171 18.9551 418.043 17.9951 417.851 17.1631C417.339 14.2831 416.507 12.2031 415.355 10.9231C414.907 10.4111 412.731 9.7711 408.827 9.00311L402.011 7.9471H385.115C381.723 7.9471 378.491 8.71511 375.419 10.2511C372.923 11.5311 371.675 12.4911 371.675 13.1311L373.595 17.9311C374.875 21.2591 375.515 23.8191 375.515 25.6111C375.515 26.9551 375.131 28.3951 374.363 29.9311C372.571 33.6431 371.675 37.6111 371.675 41.8351C371.675 45.0991 372.027 49.4191 372.731 54.7951C373.115 57.9951 373.307 61.0671 373.307 64.0111C375.931 64.0111 379.547 63.4351 384.155 62.2831C386.395 61.7071 388.091 61.4191 389.243 61.4191L391.259 61.7071C391.963 61.8991 393.083 62.5711 394.619 63.7231C395.963 64.6831 397.083 65.2271 397.979 65.3551C399.579 65.3551 401.243 64.5551 402.971 62.9551C404.699 61.2911 406.363 59.9151 407.963 58.8271C411.547 56.9071 414.491 55.1791 416.795 53.6431C422.683 49.8031 425.627 46.8591 425.627 44.8111ZM410.843 44.8111C410.843 46.6031 410.331 47.9151 409.307 48.7471C408.347 49.5151 407.035 49.8991 405.371 49.8991L399.803 49.3231L396.923 49.2271C396.027 49.2271 395.163 49.4831 394.331 49.9951L391.643 51.3391C391.067 51.3391 389.787 50.1551 387.803 47.7871C385.499 44.9071 384.347 42.1871 384.347 39.6271L385.691 28.9711C386.075 25.5791 386.427 22.7951 386.747 20.6191C387.067 18.3791 387.259 17.0991 387.323 16.7791L391.739 18.6991C392.891 19.0831 393.787 19.2751 394.427 19.2751L397.307 18.4111C398.779 17.8351 400.571 17.5471 402.683 17.5471C403.899 17.5471 404.859 17.8031 405.563 18.3151C406.331 18.8271 406.875 19.5311 407.195 20.4271L407.291 27.5311C407.291 30.5391 407.515 33.3551 407.963 35.9791L409.403 40.3951L410.843 44.8111Z" fill="white"/>
</svg>
